# Blender v2.76 (sub 0) OBJ File: 'bomb.blend'
# www.blender.org
mtllib bomb.mtl
o Cannonball_Cannonball.002
v 0.169048 -0.362523 0.000000
v 0.208476 -0.311202 -0.138632
v 0.252596 -0.290628 -0.106104
v 0.120512 -0.258435 -0.277265
v 0.156433 -0.335470 -0.150055
v 0.282077 -0.276881 -0.057423
v 0.292427 -0.272054 0.000000
v 0.282077 -0.276881 0.057423
v 0.371799 -0.141258 0.000000
v 0.352672 -0.150177 -0.106104
v 0.298198 -0.175579 -0.196058
v 0.216675 -0.213594 -0.256160
v 0.066751 -0.143145 -0.362264
v 0.192394 -0.084557 -0.334689
v 0.298911 -0.034887 -0.256160
v 0.370081 -0.001700 -0.138632
v 0.395073 0.009954 0.000000
v 0.352672 -0.150177 0.106104
v 0.298198 -0.175579 0.196055
v 0.370081 -0.001700 0.138632
v 0.358708 0.158562 0.000000
v 0.331658 0.145949 -0.150055
v 0.254623 0.110027 -0.277265
v 0.139330 0.056265 -0.362264
v 0.003336 -0.007151 -0.392111
v -0.060080 0.128845 -0.362264
v 0.065563 0.187433 -0.334689
v -0.017678 0.288977 -0.256160
v 0.172080 0.237103 -0.256160
v 0.243250 0.270290 -0.138632
v 0.268242 0.281944 0.000000
v 0.118319 0.352394 -0.106104
v 0.137447 0.361313 0.000000
v -0.024119 0.379759 -0.057423
v -0.013769 0.384585 -0.000000
v -0.162377 0.348222 -0.000000
v 0.063845 0.326992 -0.196058
v -0.053600 0.366012 -0.106104
v -0.097720 0.345438 -0.138632
v -0.113841 0.244136 -0.277265
v -0.149763 0.321170 -0.150055
v 0.216675 -0.213594 0.256160
v 0.066751 -0.143145 0.362264
v 0.120512 -0.258435 0.277265
v 0.192394 -0.084557 0.334688
v 0.298911 -0.034887 0.256160
v 0.331658 0.145949 0.150055
v 0.243250 0.270290 0.138632
v 0.118319 0.352394 0.106104
v -0.024119 0.379759 0.057423
v 0.063845 0.326992 0.196055
v 0.156433 -0.335470 0.150055
v 0.208476 -0.311202 0.138632
v 0.252596 -0.290628 0.106104
v 0.104389 -0.359738 0.138632
v -0.017678 0.288977 0.256160
v 0.065563 0.187433 0.334688
v 0.172080 0.237103 0.256160
v 0.254623 0.110027 0.277265
v 0.139332 0.056265 0.362264
v 0.003336 -0.007151 0.392111
v -0.058893 -0.201734 0.334688
v -0.132661 -0.070567 0.362264
v -0.185724 0.070256 0.334688
v -0.292239 0.020588 0.256160
v -0.210006 0.199293 0.256160
v -0.113841 0.244136 0.277265
v -0.060080 0.128845 0.362264
v -0.053600 0.366012 0.106104
v -0.097720 0.345438 0.138632
v -0.149763 0.321170 0.150055
v -0.201808 0.296901 0.138632
v -0.291530 0.161278 0.196055
v -0.363412 -0.012601 0.138632
v -0.247951 -0.124327 0.277265
v -0.165408 -0.251403 0.256160
v 0.024347 -0.303278 0.256160
v -0.365128 0.126959 0.000000
v -0.388404 -0.024255 0.000000
v -0.346000 0.135878 0.106104
v -0.245928 0.276327 0.106104
v -0.275406 0.262581 0.057423
v -0.285759 0.257754 -0.000000
v -0.346000 0.135878 -0.106104
v -0.363412 -0.012601 -0.138632
v -0.352039 -0.172864 0.000000
v -0.324989 -0.160251 0.150055
v -0.236581 -0.284591 0.138632
v -0.057177 -0.341293 0.196055
v -0.261573 -0.296245 0.000000
v 0.060268 -0.380312 0.106104
v -0.111647 -0.366693 0.106104
v -0.130775 -0.375612 0.000000
v -0.236581 -0.284591 -0.138632
v -0.324989 -0.160251 -0.150055
v -0.247951 -0.124327 -0.277265
v -0.292239 0.020588 -0.256160
v -0.132661 -0.070567 -0.362264
v -0.185724 0.070256 -0.334689
v -0.210006 0.199293 -0.256160
v -0.291530 0.161278 -0.196055
v 0.030790 -0.394058 0.057423
v -0.201808 0.296901 -0.138632
v -0.245928 0.276327 -0.106104
v -0.275406 0.262581 -0.057423
v 0.020437 -0.398886 0.000000
v -0.111647 -0.366693 -0.106104
v -0.057177 -0.341293 -0.196055
v -0.165408 -0.251403 -0.256160
v 0.024347 -0.303278 -0.256160
v -0.058893 -0.201734 -0.334689
v 0.030790 -0.394058 -0.057423
v 0.060268 -0.380312 -0.106104
v 0.104389 -0.359738 -0.138632
v -0.203075 0.527939 0.006042
v -0.220102 0.533527 -0.011389
v -0.190167 0.573259 -0.011389
v -0.180050 0.558507 0.006042
v -0.132297 0.590459 -0.012296
v -0.127273 0.572822 0.006042
v -0.137320 0.608095 0.006042
v -0.201110 0.589212 0.006042
v -0.238532 0.539573 0.006042
v -0.132297 0.590459 0.024381
v -0.190167 0.573259 0.023471
v -0.220102 0.533527 0.023473
v -0.237485 0.467746 0.006042
v -0.219672 0.471051 -0.011352
v -0.202646 0.474211 0.006042
v -0.219672 0.471051 0.023437
v -0.211664 0.400495 0.006042
v -0.195372 0.406537 -0.011338
v -0.179079 0.412582 0.006042
v -0.195372 0.406537 0.023420
v -0.155081 0.320713 0.100914
v -0.274943 0.373041 0.091623
v -0.216399 0.292121 0.072497
v -0.196532 0.409605 0.127963
v -0.118120 0.446169 0.091623
v -0.093764 0.349306 0.072497
v -0.085641 0.461314 0.003891
v -0.068364 0.361150 0.003891
v -0.093764 0.349306 -0.064715
v -0.118120 0.446169 -0.083841
v -0.193673 0.410938 -0.120181
v -0.155081 0.320713 -0.093135
v -0.274943 0.373041 -0.083841
v -0.216399 0.292121 -0.064715
v -0.307422 0.357896 0.003891
v -0.241796 0.280278 0.003891
vn 0.422600 -0.906300 0.000000
vn 0.526600 -0.764200 -0.372400
vn 0.645100 -0.708900 -0.285000
vn 0.293800 -0.630000 -0.718800
vn 0.386800 -0.829400 -0.403100
vn 0.724300 -0.672000 -0.154200
vn 0.752100 -0.659000 0.000000
vn 0.724300 -0.672000 0.154200
vn 0.945300 -0.326200 0.000000
vn 0.895700 -0.349300 -0.275100
vn 0.754400 -0.415200 -0.508300
vn 0.543100 -0.513700 -0.664100
vn 0.158200 -0.339300 -0.927300
vn 0.479800 -0.189300 -0.856700
vn 0.752500 -0.062200 -0.655700
vn 0.934600 0.022700 -0.354800
vn 0.998600 0.052600 0.000000
vn 0.895700 -0.349300 0.275100
vn 0.754400 -0.415200 0.508300
vn 0.934600 0.022700 0.354800
vn 0.906300 0.422600 0.000000
vn 0.837300 0.390400 -0.382700
vn 0.640800 0.298800 -0.707100
vn 0.346800 0.161700 -0.923900
vn 0.000000 0.000000 -1.000000
vn -0.158200 0.339300 -0.927300
vn 0.163400 0.489200 -0.856700
vn -0.044500 0.746300 -0.664100
vn 0.436000 0.616400 -0.655700
vn 0.618200 0.701300 -0.354800
vn 0.682200 0.731200 0.000000
vn 0.308100 0.910700 -0.275100
vn 0.357700 0.933800 0.000000
vn -0.049200 0.986800 -0.154200
vn -0.021400 0.999800 0.000000
vn -0.422600 0.906300 0.000000
vn 0.166900 0.844800 -0.508300
vn -0.128400 0.949900 -0.285000
vn -0.247000 0.894600 -0.372400
vn -0.293800 0.630000 -0.718800
vn -0.386700 0.829400 -0.403100
vn 0.543100 -0.513700 0.664100
vn 0.158200 -0.339300 0.927300
vn 0.293800 -0.630000 0.718800
vn 0.479800 -0.189300 0.856700
vn 0.752500 -0.062200 0.655700
vn 0.837300 0.390400 0.382700
vn 0.618200 0.701300 0.354800
vn 0.308100 0.910700 0.275100
vn -0.049200 0.986800 0.154200
vn 0.166900 0.844800 0.508300
vn 0.386800 -0.829400 0.403100
vn 0.526600 -0.764200 0.372400
vn 0.645100 -0.708900 0.285000
vn 0.247000 -0.894600 0.372400
vn -0.044500 0.746300 0.664100
vn 0.163400 0.489200 0.856700
vn 0.436000 0.616400 0.655700
vn 0.640900 0.298800 0.707100
vn 0.346800 0.161700 0.923900
vn 0.000000 0.000000 1.000000
vn -0.163400 -0.489200 0.856700
vn -0.346800 -0.161700 0.923900
vn -0.479800 0.189300 0.856700
vn -0.752500 0.062200 0.655700
vn -0.543100 0.513700 0.664100
vn -0.293800 0.630000 0.718800
vn -0.158200 0.339300 0.927300
vn -0.128400 0.949900 0.285000
vn -0.247000 0.894600 0.372400
vn -0.386800 0.829400 0.403100
vn -0.526600 0.764200 0.372400
vn -0.754400 0.415200 0.508300
vn -0.934600 -0.022700 0.354800
vn -0.640800 -0.298800 0.707100
vn -0.436000 -0.616400 0.655700
vn 0.044500 -0.746300 0.664100
vn -0.945300 0.326200 0.000000
vn -0.998600 -0.052600 0.000000
vn -0.895700 0.349300 0.275100
vn -0.645100 0.708900 0.285000
vn -0.724300 0.672000 0.154200
vn -0.752100 0.659000 0.000000
vn -0.895700 0.349300 -0.275100
vn -0.934600 -0.022700 -0.354800
vn -0.906300 -0.422600 0.000000
vn -0.837300 -0.390400 0.382700
vn -0.618200 -0.701300 0.354800
vn -0.166900 -0.844800 0.508300
vn -0.682200 -0.731200 0.000000
vn 0.128400 -0.949900 0.285000
vn -0.308100 -0.910700 0.275100
vn -0.357700 -0.933800 0.000000
vn -0.618200 -0.701300 -0.354800
vn -0.837300 -0.390400 -0.382700
vn -0.640800 -0.298800 -0.707100
vn -0.752500 0.062200 -0.655700
vn -0.346800 -0.161700 -0.923900
vn -0.479800 0.189300 -0.856700
vn -0.543100 0.513700 -0.664100
vn -0.754400 0.415200 -0.508300
vn 0.049200 -0.986800 0.154200
vn -0.526600 0.764200 -0.372400
vn -0.645100 0.708900 -0.285000
vn -0.724300 0.672000 -0.154200
vn 0.021400 -0.999800 0.000000
vn -0.308100 -0.910700 -0.275100
vn -0.166900 -0.844800 -0.508300
vn -0.436000 -0.616400 -0.655700
vn 0.044500 -0.746300 -0.664100
vn -0.163400 -0.489200 -0.856700
vn 0.049200 -0.986800 -0.154200
vn 0.128400 -0.949900 -0.285000
vn 0.247000 -0.894600 -0.372400
vn 0.949200 -0.314500 0.000000
vn -0.115300 0.036300 -0.992600
vn -0.071500 0.095700 -0.992800
vn 0.563200 -0.826300 0.000000
vn 0.548100 0.158800 -0.821100
vn 0.775300 -0.631500 0.000000
vn 0.322600 0.946500 0.000000
vn -0.569400 0.822000 0.000000
vn -0.950500 0.310600 0.000000
vn 0.548100 0.158800 0.821100
vn -0.071500 0.095700 0.992800
vn -0.115300 0.036300 0.992600
vn -0.982400 -0.186500 0.000000
vn -0.066200 -0.013900 -0.997700
vn 0.983000 0.183500 0.000000
vn -0.066200 -0.013900 0.997700
vn -0.935200 -0.353900 0.000000
vn 0.002500 0.002900 -1.000000
vn 0.934000 0.357200 0.000000
vn 0.002500 0.002900 1.000000
vn 0.112300 -0.240900 0.964000
vn -0.769600 0.223300 0.598100
vn -0.510000 -0.529300 0.678000
vn -0.222400 0.476900 0.850300
vn 0.323600 0.733100 0.598100
vn 0.733300 0.050500 0.678000
vn 0.545400 0.838200 0.000000
vn 0.985400 0.170000 0.000000
vn 0.736200 0.048300 -0.675000
vn 0.326200 0.735500 -0.593800
vn -0.209800 0.483600 -0.849700
vn 0.109300 -0.245700 -0.963100
vn -0.767700 0.224200 -0.600300
vn -0.510000 -0.529300 -0.678000
vn -0.992600 0.121000 0.000000
vn -0.763600 -0.645600 0.000000
usemtl None
s 1
f 1//1 2//2 3//3
f 4//4 2//2 5//5
f 1//1 5//5 2//2
f 1//1 3//3 6//6
f 1//1 6//6 7//7
f 1//1 7//7 8//8
f 9//9 8//8 7//7
f 6//6 9//9 7//7
f 6//6 10//10 9//9
f 3//3 10//10 6//6
f 3//3 11//11 10//10
f 2//2 11//11 3//3
f 2//2 12//12 11//11
f 4//4 12//12 2//2
f 13//13 12//12 4//4
f 13//13 14//14 12//12
f 14//14 11//11 12//12
f 14//14 15//15 11//11
f 11//11 15//15 16//16
f 11//11 16//16 10//10
f 10//10 16//16 17//17
f 10//10 17//17 9//9
f 17//17 18//18 9//9
f 9//9 18//18 8//8
f 8//8 18//18 19//19
f 20//20 19//19 18//18
f 17//17 20//20 18//18
f 21//21 20//20 17//17
f 16//16 21//21 17//17
f 16//16 22//22 21//21
f 15//15 22//22 16//16
f 15//15 23//23 22//22
f 14//14 23//23 15//15
f 14//14 24//24 23//23
f 13//13 24//24 14//14
f 13//13 25//25 24//24
f 26//26 24//24 25//25
f 26//26 27//27 24//24
f 26//26 28//28 27//27
f 27//27 23//23 24//24
f 27//27 29//29 23//23
f 29//29 22//22 23//23
f 29//29 30//30 22//22
f 30//30 21//21 22//22
f 30//30 31//31 21//21
f 32//32 31//31 30//30
f 32//32 33//33 31//31
f 34//34 33//33 32//32
f 34//34 35//35 33//33
f 36//36 35//35 34//34
f 27//27 37//37 29//29
f 37//37 30//30 29//29
f 37//37 32//32 30//30
f 38//38 32//32 37//37
f 38//38 34//34 32//32
f 36//36 34//34 38//38
f 27//27 28//28 37//37
f 39//39 37//37 28//28
f 39//39 38//38 37//37
f 36//36 38//38 39//39
f 26//26 40//40 28//28
f 40//40 39//39 28//28
f 40//40 41//41 39//39
f 36//36 39//39 41//41
f 42//42 43//43 44//44
f 42//42 45//45 43//43
f 19//19 45//45 42//42
f 19//19 46//46 45//45
f 20//20 46//46 19//19
f 47//47 46//46 20//20
f 21//21 47//47 20//20
f 21//21 48//48 47//47
f 21//21 31//31 48//48
f 31//31 49//49 48//48
f 31//31 33//33 49//49
f 33//33 50//50 49//49
f 33//33 35//35 50//50
f 36//36 50//50 35//35
f 50//50 51//51 49//49
f 48//48 49//49 51//51
f 42//42 44//44 52//52
f 42//42 52//52 53//53
f 19//19 42//42 53//53
f 19//19 53//53 54//54
f 8//8 19//19 54//54
f 1//1 8//8 54//54
f 1//1 54//54 53//53
f 1//1 53//53 52//52
f 1//1 52//52 55//55
f 51//51 56//56 57//57
f 51//51 57//57 58//58
f 48//48 51//51 58//58
f 47//47 48//48 58//58
f 47//47 58//58 59//59
f 47//47 59//59 46//46
f 46//46 59//59 60//60
f 46//46 60//60 45//45
f 45//45 60//60 61//61
f 45//45 61//61 43//43
f 61//61 62//62 43//43
f 61//61 63//63 62//62
f 61//61 64//64 63//63
f 63//63 64//64 65//65
f 66//66 65//65 64//64
f 67//67 66//66 64//64
f 67//67 64//64 68//68
f 56//56 67//67 68//68
f 56//56 68//68 57//57
f 57//57 68//68 61//61
f 57//57 61//61 60//60
f 58//58 57//57 60//60
f 58//58 60//60 59//59
f 61//61 68//68 64//64
f 36//36 69//69 50//50
f 50//50 69//69 51//51
f 51//51 69//69 70//70
f 51//51 70//70 56//56
f 56//56 70//70 71//71
f 56//56 71//71 67//67
f 67//67 71//71 72//72
f 67//67 72//72 66//66
f 72//72 73//73 66//66
f 66//66 73//73 65//65
f 73//73 74//74 65//65
f 75//75 65//65 74//74
f 63//63 65//65 75//75
f 63//63 75//75 76//76
f 63//63 76//76 62//62
f 77//77 62//62 76//76
f 44//44 62//62 77//77
f 44//44 43//43 62//62
f 36//36 70//70 69//69
f 36//36 72//72 71//71
f 36//36 71//71 70//70
f 74//74 78//78 79//79
f 74//74 80//80 78//78
f 73//73 80//80 74//74
f 81//81 80//80 73//73
f 72//72 81//81 73//73
f 36//36 81//81 72//72
f 36//36 82//82 81//81
f 81//81 82//82 80//80
f 80//80 82//82 83//83
f 80//80 83//83 78//78
f 83//83 84//84 78//78
f 78//78 84//84 85//85
f 78//78 85//85 79//79
f 86//86 79//79 85//85
f 74//74 79//79 86//86
f 74//74 86//86 87//87
f 75//75 74//74 87//87
f 75//75 87//87 88//88
f 75//75 88//88 76//76
f 89//89 76//76 88//88
f 77//77 76//76 89//89
f 55//55 77//77 89//89
f 44//44 77//77 55//55
f 44//44 55//55 52//52
f 88//88 86//86 90//90
f 88//88 87//87 86//86
f 36//36 83//83 82//82
f 1//1 55//55 91//91
f 55//55 89//89 91//91
f 91//91 89//89 92//92
f 89//89 88//88 92//92
f 88//88 93//93 92//92
f 88//88 90//90 93//93
f 93//93 90//90 94//94
f 86//86 94//94 90//90
f 86//86 95//95 94//94
f 86//86 85//85 95//95
f 85//85 96//96 95//95
f 85//85 97//97 96//96
f 97//97 98//98 96//96
f 97//97 99//99 98//98
f 99//99 25//25 98//98
f 99//99 26//26 25//25
f 99//99 40//40 26//26
f 99//99 100//100 40//40
f 97//97 100//100 99//99
f 97//97 101//101 100//100
f 85//85 101//101 97//97
f 85//85 84//84 101//101
f 91//91 92//92 102//102
f 1//1 91//91 102//102
f 103//103 40//40 100//100
f 101//101 103//103 100//100
f 101//101 104//104 103//103
f 84//84 104//104 101//101
f 84//84 105//105 104//104
f 83//83 105//105 84//84
f 36//36 105//105 83//83
f 36//36 103//103 104//104
f 36//36 104//104 105//105
f 103//103 41//41 40//40
f 36//36 41//41 103//103
f 1//1 102//102 106//106
f 92//92 106//106 102//102
f 92//92 93//93 106//106
f 106//106 93//93 107//107
f 93//93 94//94 107//107
f 94//94 108//108 107//107
f 94//94 109//109 108//108
f 109//109 110//110 108//108
f 109//109 111//111 110//110
f 111//111 4//4 110//110
f 111//111 13//13 4//4
f 111//111 25//25 13//13
f 111//111 98//98 25//25
f 109//109 98//98 111//111
f 109//109 96//96 98//98
f 94//94 96//96 109//109
f 94//94 95//95 96//96
f 1//1 106//106 112//112
f 106//106 107//107 112//112
f 107//107 113//113 112//112
f 107//107 108//108 113//113
f 108//108 114//114 113//113
f 108//108 110//110 114//114
f 114//114 110//110 4//4
f 114//114 4//4 5//5
f 1//1 114//114 5//5
f 1//1 112//112 113//113
f 1//1 113//113 114//114
f 115//115 116//116 117//117
f 115//115 117//117 118//118
f 118//118 119//119 120//120
f 118//118 117//117 119//119
f 117//117 121//121 119//119
f 117//117 122//122 121//121
f 116//116 122//122 117//117
f 116//116 123//123 122//122
f 119//119 121//121 120//120
f 121//121 124//124 120//120
f 121//121 125//125 124//124
f 121//121 122//122 125//125
f 122//122 126//126 125//125
f 122//122 123//123 126//126
f 127//127 126//126 123//123
f 116//116 127//127 123//123
f 116//116 128//128 127//127
f 115//115 128//128 116//116
f 115//115 129//129 128//128
f 124//124 118//118 120//120
f 124//124 125//125 118//118
f 125//125 115//115 118//118
f 125//125 126//126 115//115
f 130//130 115//115 126//126
f 127//127 130//130 126//126
f 131//131 130//130 127//127
f 128//128 131//131 127//127
f 128//128 132//132 131//131
f 129//129 132//132 128//128
f 129//129 133//133 132//132
f 130//130 129//129 115//115
f 134//134 129//129 130//130
f 131//131 134//134 130//130
f 134//134 133//133 129//129
f 135//135 136//136 137//137
f 135//135 138//138 136//136
f 135//135 139//139 138//138
f 135//135 140//140 139//139
f 140//140 141//141 139//139
f 140//140 142//142 141//141
f 143//143 141//141 142//142
f 143//143 144//144 141//141
f 143//143 145//145 144//144
f 143//143 146//146 145//145
f 146//146 147//147 145//145
f 146//146 148//148 147//147
f 148//148 149//149 147//147
f 148//148 150//150 149//149
f 137//137 149//149 150//150
f 137//137 136//136 149//149
f 136//136 138//138 139//139
f 147//147 136//136 139//139
f 144//144 147//147 139//139
f 144//144 145//145 147//147
f 147//147 149//149 136//136
f 141//141 144//144 139//139
